<svg width="800" height="200" viewBox="0 0 800 200" fill="none" xmlns="http://www.w3.org/2000/svg">
  <rect width="800" height="200" fill="#0D1117"/>
  
  <!-- Back Grid Pattern -->
  <path d="M0 40H800M0 80H800M0 120H800M0 160H800" stroke="#161B22" stroke-width="1"/>
  <path d="M40 0V200M80 0V200M120 0V200M160 0V200" stroke="#161B22" stroke-width="1"/>
  
  <!-- Genesys Cloud High-Fidelity Icon -->
  <g transform="translate(60, 45)">
    <!-- Top Large Pill -->
    <rect x="0" y="45" width="100" height="40" rx="20" fill="#FF4F00"/>
    <!-- Bottom Smaller Pill -->
    <rect x="35" y="100" width="65" height="40" rx="20" fill="#FF4F00"/>
    <!-- Top Right Dot -->
    <circle cx="85" cy="15" r="20" fill="#FF4F00"/>
  </g>
  
  <!-- Main Title -->
  <text x="190" y="95" fill="white" font-family="Arial, sans-serif" font-size="32" font-weight="bold">GENESYS MANAGER</text>
  <text x="190" y="125" fill="#8B949E" font-family="Arial, sans-serif" font-size="16">V2.0 · Professional Ops Dashboard</text>
  
  <!-- Tech Stack Line -->
  <g transform="translate(190, 150)">
    <rect x="0" y="0" width="80" height="24" rx="4" fill="#3776AB"/>
    <text x="40" y="16" fill="white" font-family="Arial" font-size="10" text-anchor="middle">PYTHON</text>
    
    <rect x="90" y="0" width="80" height="24" rx="4" fill="#05998B"/>
    <text x="130" y="16" fill="white" font-family="Arial" font-size="10" text-anchor="middle">FASTAPI</text>
    
    <rect x="180" y="0" width="80" height="24" rx="4" fill="#42B883"/>
    <text x="220" y="16" fill="white" font-family="Arial" font-size="10" text-anchor="middle">VUE 3</text>
    
    <rect x="270" y="0" width="80" height="24" rx="4" fill="#2496ED"/>
    <text x="310" y="16" fill="white" font-family="Arial" font-size="10" text-anchor="middle">DOCKER</text>
  </g>
</svg>
